<svg preserveAspectRatio="none" width="100%" height="100%" overflow="visible" style="display: block;" viewBox="0 0 35 33" fill="none" xmlns="http://www.w3.org/2000/svg">
<path id="Vector" d="M19.8332 23.5713H22.1666V30.6428H19.8332V23.5713ZM12.8333 33H15.1666V25.9285H12.8333V33ZM5.83329 30.6428H8.16662V23.5713H5.83329V30.6428ZM26.8332 33H29.1665V25.9285H26.8332V33ZM30.3332 9.55809V9.42845C30.3317 6.96078 29.0572 4.6715 26.9703 3.38808C24.882 2.10491 22.2831 2.01357 20.1133 3.14647C18.5631 1.28578 16.3218 0.15287 13.9182 0.0143817C11.5149 -0.124103 9.15976 0.742161 7.40958 2.41281C5.65958 4.08198 4.66645 6.40678 4.66645 8.839C4.66645 9.07472 4.67811 9.31043 4.68978 9.54615C2.78082 9.93065 1.18688 11.2536 0.443128 13.0716C-0.30208 14.8896 -0.0979049 16.9622 0.984161 18.5975C2.06623 20.2328 3.88622 21.214 5.833 21.214H29.1662C31.1102 21.2155 32.9272 20.2387 34.011 18.6078C35.0945 16.977 35.3016 14.9086 34.5637 13.0906C33.8243 11.2741 32.2378 9.94999 30.3332 9.55809Z" fill="var(--fill-0, white)"/>
</svg>
