<svg width="91" height="95" viewBox="0 0 91 95" fill="none" xmlns="http://www.w3.org/2000/svg">
<rect width="91" height="95" rx="24" fill="black"/>
<path d="M32 37V41V42H30.5V47H28.5V51H27.5V54.5H26.5H26V58H24V61.7763H25V64H27.5V66.5H29.5V65.5H32.5V66.5H35V65H37V64H39.5V59H52.5V60V65H55.5V66.5H57.5V64H60V65.5H62.5V64H65V62H66.5V60H67V59H66.5V57H68V50.5H67V49H65V44.5H62V43V37H60.5V35.5V34H59V33H57V31.5H54V30H50.5V29H45V30H44.5V32H38V34.5H35V37H32Z" fill="white"/>
<path d="M49 36V38.5H51V41H52.5V46H54.5V51H56V55.5H54.5V57.5H51.5V59.5H49.5V60.5H47V62H37V61H35.5V58.5H34V55.5H33V53.5H32V48H33.5V41H36V40H37.5V38.5H41V36H49Z" fill="black" stroke="white"/>
<path d="M38.5 48.5V49.5" stroke="white" stroke-width="2"/>
<path d="M46.5 48.5V49.5" stroke="white" stroke-width="2"/>
<path d="M44 56H42L41 55.5" stroke="white"/>
</svg>
